# xmcd
#
# Track frame offsets:
# 150
# 7163
# 28226
# 43643
# 57126
# 80499
# 92819
# 108004
# 127602
# 150739
# 161274
# 176602
# 192235
#
# Disc length: 2769 seconds
#
#
# Revision: 6
# Processed by: cddbd v1.5.1PL0 Copyright (c) Steve Scherf et al.
# Submitted via: FreeRIP 2.80 
#
DISCID=970acf0d
DTITLE=Everlast - Eat At Whitey's
DYEAR=2000
DGENRE=Blues
TTITLE0=Whitey
TTITLE1=Black Jesus
TTITLE2=I Can't Move
TTITLE3=Black Coffee
TTITLE4=Babylon Feeling
TTITLE5=Deadly Assassins
TTITLE6=Children's Story
TTITLE7=Love For Real
TTITLE8=One And The Same
TTITLE9=We're All Gonna Die
TTITLE10=Mercy On My Soul
TTITLE11=One, Two
TTITLE12=Graves To Dig
EXTD=YEAR: 2000  ID3G:   0
EXTT0=
EXTT1=
EXTT2=
EXTT3=feat. Merry Clayton
EXTT4=feat. Carlos Santana
EXTT5=feat. B-Real
EXTT6=feat. Rahzel
EXTT7=feat. N'Dea Davenport
EXTT8=
EXTT9=feat. Cee-Lo
EXTT10=feat. Warren Haynes
EXTT11=feat. Kurupt
EXTT12=
PLAYORDER=
